<?xml version="1.0" encoding="UTF-8" standalone="no"?>
<!DOCTYPE svg PUBLIC "-//W3C//DTD SVG 1.1//EN"
 "http://www.w3.org/Graphics/SVG/1.1/DTD/svg11.dtd">
<!-- Generated by graphviz version 2.43.0 (0)
 -->
<!-- Title: App Pages: 1 -->
<svg width="671pt" height="217pt"
 viewBox="0.00 0.00 670.60 216.60" xmlns="http://www.w3.org/2000/svg" xmlns:xlink="http://www.w3.org/1999/xlink">
<g id="graph0" class="graph" transform="scale(1 1) rotate(0) translate(28.8 187.8)">
<title>App</title>
<polygon fill="white" stroke="transparent" points="-28.8,28.8 -28.8,-187.8 641.8,-187.8 641.8,28.8 -28.8,28.8"/>
<text text-anchor="middle" x="306.5" y="-144.6" font-family="Arial Bold" font-size="13.00">APP ERD</text>
<!-- m_Admin -->
<g id="node1" class="node">
<title>m_Admin</title>
<path fill="none" stroke="black" d="M12,-0.5C12,-0.5 173,-0.5 173,-0.5 179,-0.5 185,-6.5 185,-12.5 185,-12.5 185,-109.5 185,-109.5 185,-115.5 179,-121.5 173,-121.5 173,-121.5 12,-121.5 12,-121.5 6,-121.5 0,-115.5 0,-109.5 0,-109.5 0,-12.5 0,-12.5 0,-6.5 6,-0.5 12,-0.5"/>
<text text-anchor="start" x="73" y="-108.7" font-family="Arial Bold" font-size="11.00">Admin</text>
<polyline fill="none" stroke="black" points="0,-101.5 185,-101.5 "/>
<text text-anchor="start" x="7.5" y="-88" font-family="Arial" font-size="10.00">created_at </text>
<text text-anchor="start" x="56.5" y="-88" font-family="Arial Italic" font-size="10.00" fill="#999999">datetime (6,0) ∗</text>
<text text-anchor="start" x="7.5" y="-75" font-family="Arial" font-size="10.00">email </text>
<text text-anchor="start" x="34.5" y="-75" font-family="Arial Italic" font-size="10.00" fill="#999999">string ∗ U</text>
<text text-anchor="start" x="7.5" y="-62" font-family="Arial" font-size="10.00">encrypted_password </text>
<text text-anchor="start" x="101.5" y="-62" font-family="Arial Italic" font-size="10.00" fill="#999999">string ∗</text>
<text text-anchor="start" x="7.5" y="-49" font-family="Arial" font-size="10.00">remember_created_at </text>
<text text-anchor="start" x="105.5" y="-49" font-family="Arial Italic" font-size="10.00" fill="#999999">datetime (6,0)</text>
<text text-anchor="start" x="7.5" y="-36" font-family="Arial" font-size="10.00">reset_password_sent_at </text>
<text text-anchor="start" x="117.5" y="-36" font-family="Arial Italic" font-size="10.00" fill="#999999">datetime (6,0)</text>
<text text-anchor="start" x="7.5" y="-23" font-family="Arial" font-size="10.00">reset_password_token </text>
<text text-anchor="start" x="109.5" y="-23" font-family="Arial Italic" font-size="10.00" fill="#999999">string</text>
<text text-anchor="start" x="7.5" y="-10" font-family="Arial" font-size="10.00">updated_at </text>
<text text-anchor="start" x="59.5" y="-10" font-family="Arial Italic" font-size="10.00" fill="#999999">datetime (6,0) ∗</text>
</g>
<!-- m_Manager -->
<g id="node2" class="node">
<title>m_Manager</title>
<path fill="none" stroke="black" d="M226,-0.5C226,-0.5 387,-0.5 387,-0.5 393,-0.5 399,-6.5 399,-12.5 399,-12.5 399,-109.5 399,-109.5 399,-115.5 393,-121.5 387,-121.5 387,-121.5 226,-121.5 226,-121.5 220,-121.5 214,-115.5 214,-109.5 214,-109.5 214,-12.5 214,-12.5 214,-6.5 220,-0.5 226,-0.5"/>
<text text-anchor="start" x="281.5" y="-108.7" font-family="Arial Bold" font-size="11.00">Manager</text>
<polyline fill="none" stroke="black" points="214,-101.5 399,-101.5 "/>
<text text-anchor="start" x="221.5" y="-88" font-family="Arial" font-size="10.00">created_at </text>
<text text-anchor="start" x="270.5" y="-88" font-family="Arial Italic" font-size="10.00" fill="#999999">datetime (6,0) ∗</text>
<text text-anchor="start" x="221.5" y="-75" font-family="Arial" font-size="10.00">email </text>
<text text-anchor="start" x="248.5" y="-75" font-family="Arial Italic" font-size="10.00" fill="#999999">string ∗ U</text>
<text text-anchor="start" x="221.5" y="-62" font-family="Arial" font-size="10.00">encrypted_password </text>
<text text-anchor="start" x="315.5" y="-62" font-family="Arial Italic" font-size="10.00" fill="#999999">string ∗</text>
<text text-anchor="start" x="221.5" y="-49" font-family="Arial" font-size="10.00">remember_created_at </text>
<text text-anchor="start" x="319.5" y="-49" font-family="Arial Italic" font-size="10.00" fill="#999999">datetime (6,0)</text>
<text text-anchor="start" x="221.5" y="-36" font-family="Arial" font-size="10.00">reset_password_sent_at </text>
<text text-anchor="start" x="331.5" y="-36" font-family="Arial Italic" font-size="10.00" fill="#999999">datetime (6,0)</text>
<text text-anchor="start" x="221.5" y="-23" font-family="Arial" font-size="10.00">reset_password_token </text>
<text text-anchor="start" x="323.5" y="-23" font-family="Arial Italic" font-size="10.00" fill="#999999">string</text>
<text text-anchor="start" x="221.5" y="-10" font-family="Arial" font-size="10.00">updated_at </text>
<text text-anchor="start" x="273.5" y="-10" font-family="Arial Italic" font-size="10.00" fill="#999999">datetime (6,0) ∗</text>
</g>
<!-- m_User -->
<g id="node3" class="node">
<title>m_User</title>
<path fill="none" stroke="black" d="M440,-0.5C440,-0.5 601,-0.5 601,-0.5 607,-0.5 613,-6.5 613,-12.5 613,-12.5 613,-109.5 613,-109.5 613,-115.5 607,-121.5 601,-121.5 601,-121.5 440,-121.5 440,-121.5 434,-121.5 428,-115.5 428,-109.5 428,-109.5 428,-12.5 428,-12.5 428,-6.5 434,-0.5 440,-0.5"/>
<text text-anchor="start" x="506" y="-108.7" font-family="Arial Bold" font-size="11.00">User</text>
<polyline fill="none" stroke="black" points="428,-101.5 613,-101.5 "/>
<text text-anchor="start" x="435.5" y="-88" font-family="Arial" font-size="10.00">created_at </text>
<text text-anchor="start" x="484.5" y="-88" font-family="Arial Italic" font-size="10.00" fill="#999999">datetime (6,0) ∗</text>
<text text-anchor="start" x="435.5" y="-75" font-family="Arial" font-size="10.00">email </text>
<text text-anchor="start" x="462.5" y="-75" font-family="Arial Italic" font-size="10.00" fill="#999999">string ∗ U</text>
<text text-anchor="start" x="435.5" y="-62" font-family="Arial" font-size="10.00">encrypted_password </text>
<text text-anchor="start" x="529.5" y="-62" font-family="Arial Italic" font-size="10.00" fill="#999999">string ∗</text>
<text text-anchor="start" x="435.5" y="-49" font-family="Arial" font-size="10.00">remember_created_at </text>
<text text-anchor="start" x="533.5" y="-49" font-family="Arial Italic" font-size="10.00" fill="#999999">datetime (6,0)</text>
<text text-anchor="start" x="435.5" y="-36" font-family="Arial" font-size="10.00">reset_password_sent_at </text>
<text text-anchor="start" x="545.5" y="-36" font-family="Arial Italic" font-size="10.00" fill="#999999">datetime (6,0)</text>
<text text-anchor="start" x="435.5" y="-23" font-family="Arial" font-size="10.00">reset_password_token </text>
<text text-anchor="start" x="537.5" y="-23" font-family="Arial Italic" font-size="10.00" fill="#999999">string</text>
<text text-anchor="start" x="435.5" y="-10" font-family="Arial" font-size="10.00">updated_at </text>
<text text-anchor="start" x="487.5" y="-10" font-family="Arial Italic" font-size="10.00" fill="#999999">datetime (6,0) ∗</text>
</g>
</g>
</svg>
